<svg width="67" height="66" viewBox="0 0 67 66" fill="none" xmlns="http://www.w3.org/2000/svg">
<path d="M44.4841 32.6878C44.4841 26.7217 39.5053 21.8853 33.3637 21.8853C27.222 21.8853 22.2433 26.7217 22.2433 32.6878C22.2433 38.6539 27.222 43.4904 33.3637 43.4904C39.5053 43.4904 44.4841 38.6539 44.4841 32.6878ZM44.4841 32.6878V36.7388C44.4841 40.4676 47.5958 43.4904 51.4343 43.4904C55.2728 43.4904 58.3846 40.4676 58.3846 36.7388V32.6878C58.3846 19.2641 47.1823 8.38208 33.3637 8.38208C19.545 8.38208 8.34277 19.2641 8.34277 32.6878C8.34277 46.1115 19.545 56.9935 33.3637 56.9935M45.8741 53.7372C41.9265 55.9512 37.616 57.0015 33.3636 56.9976" stroke="#111827" stroke-width="2" stroke-linecap="round" stroke-linejoin="round"/>
</svg>
