<svg width="56" height="55" viewBox="0 0 56 55" fill="none" xmlns="http://www.w3.org/2000/svg">
<path d="M25.0841 5.83423C23.5487 5.83423 22.304 7.04334 22.304 8.53487C22.304 10.0264 23.5487 11.2355 25.0841 11.2355H30.6443C32.1797 11.2355 33.4244 10.0264 33.4244 8.53487C33.4244 7.04334 32.1797 5.83423 30.6443 5.83423H25.0841Z" fill="#111827"/>
<path fill-rule="evenodd" clip-rule="evenodd" d="M11.1836 13.9361C11.1836 10.9531 13.673 8.53487 16.7438 8.53487C16.7438 13.0094 20.4779 16.6368 25.0841 16.6368H30.6443C35.2505 16.6368 38.9846 13.0094 38.9846 8.53487C42.0554 8.53487 44.5448 10.9531 44.5448 13.9361V43.6431C44.5448 46.6262 42.0554 49.0444 38.9846 49.0444H16.7438C13.673 49.0444 11.1836 46.6262 11.1836 43.6431V13.9361ZM19.5239 24.7387C17.9885 24.7387 16.7438 25.9478 16.7438 27.4393C16.7438 28.9308 17.9885 30.14 19.5239 30.14H19.5517C21.0871 30.14 22.3318 28.9308 22.3318 27.4393C22.3318 25.9478 21.0871 24.7387 19.5517 24.7387H19.5239ZM27.8642 24.7387C26.3288 24.7387 25.0841 25.9478 25.0841 27.4393C25.0841 28.9308 26.3288 30.14 27.8642 30.14H36.2045C37.7399 30.14 38.9846 28.9308 38.9846 27.4393C38.9846 25.9478 37.7399 24.7387 36.2045 24.7387H27.8642ZM19.5239 35.5412C17.9885 35.5412 16.7438 36.7503 16.7438 38.2419C16.7438 39.7334 17.9885 40.9425 19.5239 40.9425H19.5517C21.0871 40.9425 22.3318 39.7334 22.3318 38.2419C22.3318 36.7503 21.0871 35.5412 19.5517 35.5412H19.5239ZM27.8642 35.5412C26.3288 35.5412 25.0841 36.7503 25.0841 38.2419C25.0841 39.7334 26.3288 40.9425 27.8642 40.9425H36.2045C37.7399 40.9425 38.9846 39.7334 38.9846 38.2419C38.9846 36.7503 37.7399 35.5412 36.2045 35.5412H27.8642Z" fill="#111827"/>
</svg>
