<svg width="57" height="55" viewBox="0 0 57 55" fill="none" xmlns="http://www.w3.org/2000/svg">
<path fill-rule="evenodd" clip-rule="evenodd" d="M28.4205 48.7834C40.7037 48.7834 50.6613 39.1105 50.6613 27.1783C50.6613 15.2462 40.7037 5.57324 28.4205 5.57324C16.1372 5.57324 6.17969 15.2462 6.17969 27.1783C6.17969 39.1105 16.1372 48.7834 28.4205 48.7834ZM20.0802 24.4777C21.6156 24.4777 22.8603 23.2686 22.8603 21.7771C22.8603 20.2855 21.6156 19.0764 20.0802 19.0764C18.5448 19.0764 17.3001 20.2855 17.3001 21.7771C17.3001 23.2686 18.5448 24.4777 20.0802 24.4777ZM39.5409 21.7771C39.5409 23.2686 38.2962 24.4777 36.7608 24.4777C35.2254 24.4777 33.9807 23.2686 33.9807 21.7771C33.9807 20.2855 35.2254 19.0764 36.7608 19.0764C38.2962 19.0764 39.5409 20.2855 39.5409 21.7771ZM38.2496 36.7263C39.3353 35.6716 39.3353 33.9617 38.2496 32.907C37.1639 31.8523 35.4037 31.8523 34.318 32.907C31.0609 36.071 25.7801 36.071 22.523 32.907C21.4373 31.8523 19.677 31.8523 18.5914 32.907C17.5057 33.9617 17.5057 35.6716 18.5914 36.7263C24.0198 41.9996 32.8211 41.9996 38.2496 36.7263Z" fill="#111827"/>
</svg>
