<svg width="56" height="55" viewBox="0 0 56 55" fill="none" xmlns="http://www.w3.org/2000/svg">
<path fill-rule="evenodd" clip-rule="evenodd" d="M50.0422 27.0065C50.0422 38.9386 40.0846 48.6116 27.8013 48.6116C15.5181 48.6116 5.56055 38.9386 5.56055 27.0065C5.56055 15.0743 15.5181 5.40137 27.8013 5.40137C40.0846 5.40137 50.0422 15.0743 50.0422 27.0065ZM30.5814 16.2039C30.5814 17.6954 29.3368 18.9046 27.8013 18.9046C26.2659 18.9046 25.0212 17.6954 25.0212 16.2039C25.0212 14.7124 26.2659 13.5033 27.8013 13.5033C29.3368 13.5033 30.5814 14.7124 30.5814 16.2039ZM25.0212 24.3058C23.4858 24.3058 22.2411 25.5149 22.2411 27.0065C22.2411 28.498 23.4858 29.7071 25.0212 29.7071V37.809C25.0212 39.3005 26.2659 40.5096 27.8013 40.5096H30.5814C32.1169 40.5096 33.3616 39.3005 33.3616 37.809C33.3616 36.3175 32.1169 35.1084 30.5814 35.1084V27.0065C30.5814 25.5149 29.3368 24.3058 27.8013 24.3058H25.0212Z" fill="#002DAA"/>
</svg>
